<svg width="123" height="108" viewBox="0 0 123 108" fill="none" xmlns="http://www.w3.org/2000/svg">
<path d="M47 80C47 82.1217 47.8429 84.1566 49.3431 85.6569C50.8434 87.1571 52.8783 88 55 88H103L119 104V40C119 37.8783 118.157 35.8434 116.657 34.3431C115.157 32.8429 113.122 32 111 32H55C52.8783 32 50.8434 32.8429 49.3431 34.3431C47.8429 35.8434 47 37.8783 47 40V80Z" stroke="#CEC7FF" stroke-width="8" stroke-linecap="round" stroke-linejoin="round"/>
<path d="M76 52C76 54.1217 75.1571 56.1566 73.6569 57.6569C72.1566 59.1571 70.1217 60 68 60H20L4 76V12C4 9.87827 4.84285 7.84344 6.34315 6.34315C7.84344 4.84285 9.87827 4 12 4H68C70.1217 4 72.1566 4.84285 73.6569 6.34315C75.1571 7.84344 76 9.87827 76 12V52Z" stroke="#503CE6" stroke-width="8" stroke-linecap="round" stroke-linejoin="round"/>
</svg>
