<svg width="28" height="28" viewBox="0 0 28 28" fill="none" xmlns="http://www.w3.org/2000/svg">
<path d="M26.8333 4.6666V11.6666H19.8333" stroke="#503CE6" stroke-width="2" stroke-linecap="round" stroke-linejoin="round"/>
<path d="M1.16675 23.3334V16.3334H8.16675" stroke="#503CE6" stroke-width="2" stroke-linecap="round" stroke-linejoin="round"/>
<path d="M4.09508 10.5C4.68678 8.82793 5.6924 7.33299 7.01812 6.15467C8.34385 4.97636 9.94646 4.15308 11.6764 3.76165C13.4064 3.37023 15.2073 3.42341 16.9111 3.91625C18.615 4.40909 20.1662 5.32552 21.4201 6.58002L26.8334 11.6667M1.16675 16.3333L6.58008 21.42C7.83395 22.6745 9.38518 23.5909 11.089 24.0838C12.7929 24.5766 14.5938 24.6298 16.3237 24.2384C18.0537 23.847 19.6563 23.0237 20.982 21.8454C22.3078 20.667 23.3134 19.1721 23.9051 17.5" stroke="#503CE6" stroke-width="2" stroke-linecap="round" stroke-linejoin="round"/>
</svg>
